<svg xmlns="http://www.w3.org/2000/svg" width="320" height="184" fill="none" xmlns:v="https://vecta.io/nano"><g clip-path="url(#A)"><path d="M280.846 184H39.154C17.564 184 0 166.479 0 144.942s17.564-39.058 39.154-39.058h241.692c21.59 0 39.154 17.521 39.154 39.058S302.436 184 280.846 184zM39.154 109.582c-19.545 0-35.447 15.862-35.447 35.36s15.901 35.36 35.447 35.36h241.692c19.546 0 35.447-15.862 35.447-35.36s-15.901-35.36-35.447-35.36H39.154" fill="#5ac134"/><g fill="#040606"><path d="M305.435 77.819h-87.333v-6.438h80.879V15.696h6.454v62.123z"/><path d="M314.818 27.456l-10.847-10.82h-3.53l-10.846 10.82-4.564-4.552 12.737-12.706h8.877l12.736 12.706-4.563 4.552zM195.54 63.91v1.29c5.635.645 7.529 2.626 7.529 6.313 0 4.285-3.234 6.543-9.053 6.543h-15.059V52.529H193.6c5.219 0 8.083 2.396 8.083 5.806 0 3.087-1.385 4.838-6.143 5.575h0zm-9.746-6.22v4.653h5.912c2.263 0 3.002-.967 3.002-2.304 0-1.382-.739-2.35-3.002-2.35h-5.912zm0 15.206h6.651c2.772 0 3.603-1.014 3.603-2.672s-.831-2.765-3.603-2.765h-6.651v5.437zM108.239 52.53v34.743h6.929V52.529h-6.929zm13.627 19.951c-4.204 0-6.698-3.225-6.698-7.142s2.494-7.142 6.698-7.142c4.249 0 6.697 3.225 6.697 7.142s-2.448 7.142-6.697 7.142h0zm3.233 5.99c4.942 0 10.393-5.161 10.393-13.132s-5.451-13.132-10.393-13.132c-4.665 0-7.391 2.672-8.361 6.036h-2.448l.231 14.653h2.217c.924 3.317 3.649 5.575 8.361 5.575h0zM46.344 52.529v34.743h6.929V52.529h-6.929zM59.97 72.48c-4.203 0-6.698-3.225-6.698-7.142s2.494-7.142 6.698-7.142c4.249 0 6.698 3.225 6.698 7.142S64.22 72.48 59.97 72.48h0zm3.233 5.99c4.942 0 10.393-5.161 10.393-13.132s-5.451-13.132-10.393-13.132c-4.665 0-7.39 2.672-8.361 6.036h-2.448l.231 14.653h2.217c.924 3.317 3.649 5.575 8.361 5.575zm27.253-5.99c-4.203 0-6.698-3.225-6.698-7.142s2.494-7.142 6.698-7.142c4.25 0 6.698 3.225 6.698 7.142s-2.448 7.142-6.698 7.142h0zm0 5.99c8.176 0 13.626-5.161 13.626-13.132s-5.45-13.132-13.626-13.132S76.83 57.367 76.83 65.338 82.28 78.47 90.456 78.47zM63.674 35.709H50.602V10.182h6.837v15.62l-.277 7.603H58.5l.462-3.916 5.266-19.307h13.026v25.527h-6.836v-15.62l.277-7.603h-1.34l-.462 3.917-5.22 19.307zm159.887-5.575c-4.204 0-6.698-3.225-6.698-7.142s2.494-7.142 6.698-7.142c4.249 0 6.697 3.226 6.697 7.142s-2.448 7.142-6.697 7.142zm0 5.99c8.175 0 13.626-5.161 13.626-13.132S231.735 9.86 223.56 9.86s-13.627 5.16-13.627 13.132 5.451 13.132 13.627 13.132zm-101.76-25.942v34.743h6.929V10.182h-6.929zm13.626 19.952c-4.203 0-6.697-3.225-6.697-7.142s2.494-7.142 6.697-7.142c4.25 0 6.698 3.226 6.698 7.142s-2.448 7.142-6.698 7.142zm3.234 5.99c4.942 0 10.393-5.161 10.393-13.132S143.603 9.86 138.661 9.86c-4.665 0-7.391 2.672-8.361 6.036h-2.448l.231 14.653h2.217c.924 3.318 3.649 5.575 8.361 5.575h0zm27.253-5.99c-4.204 0-6.698-3.225-6.698-7.142s2.494-7.142 6.698-7.142c4.249 0 6.697 3.226 6.697 7.142s-2.448 7.142-6.697 7.142zm0 5.99c8.175 0 13.626-5.161 13.626-13.132S174.089 9.86 165.914 9.86s-13.627 5.16-13.627 13.132 5.451 13.132 13.627 13.132zm-26.265 16.405h6.929v6.865h5.773c6.606 0 10.209 3.686 10.209 9.308s-3.603 9.354-10.209 9.354h-12.702V52.529zm6.929 12.671v6.865h4.757c3.372 0 4.296-1.29 4.296-3.41 0-2.212-.924-3.456-4.296-3.456h-4.757zm19.908-12.671v25.527h6.928V52.529h-6.928zM40.801 78.055h-6.929V58.519H22.925v19.537h-6.929V52.529H40.8v25.527zm213.615-42.346h-13.072V10.182h6.836v15.62l-.277 7.603h1.34l.462-3.916 5.265-19.307h13.026v25.527h-6.836v-15.62l.277-7.603h-1.339l-.463 3.917-5.219 19.307zm3.326-35.71h5.404c-.416 4.608-3.418 7.465-9.053 7.465-5.589 0-8.638-2.857-9.054-7.465h5.404c.185 1.659 1.248 3.041 3.65 3.041 2.54 0 3.464-1.382 3.649-3.041h0zM200.28 21.564v1.29c5.636.645 7.53 2.627 7.53 6.313 0 4.285-3.234 6.543-9.054 6.543h-15.058V10.182h14.642c5.22 0 8.084 2.396 8.084 5.806 0 3.087-1.386 4.838-6.144 5.576h0zm-9.746-6.221v4.654h5.913c2.263 0 3.002-.968 3.002-2.304 0-1.382-.739-2.35-3.002-2.35h-5.913zm0 15.206h6.652c2.771 0 3.602-1.014 3.602-2.672s-.831-2.765-3.602-2.765h-6.652v5.437zM102.82 35.71v9.215h-6.79V35.71h-.877c-8.638 0-13.534-5.391-13.534-12.764 0-7.28 4.804-12.625 13.257-12.764h1.154V.506h6.79v9.676h1.155c8.36.138 13.257 5.483 13.257 12.764 0 7.372-4.804 12.764-13.534 12.764h-.878zm-7.806-5.483h1.016V15.712h-.924c-4.434.138-6.559 3.271-6.559 7.234 0 4.055 2.125 7.142 6.467 7.28h0zm7.806 0h.878c4.48-.138 6.559-3.226 6.559-7.28 0-3.963-2.079-7.096-6.559-7.234h-.878v14.514zM41.262 10.182h-6.928v19.537H24.033V10.182h-6.929v25.527H39.23v7.096h6.652V29.719h-4.619V10.182M57.291 131.39c5.434 0 10.077 2.908 12.25 8.082l-6.125 2.119c-1.137-2.612-3.409-4.09-6.125-4.09-3.805 0-6.719 3.055-6.719 7.096 0 4.09 2.914 7.145 6.719 7.145 2.716 0 4.988-1.527 6.125-4.139l6.125 2.119c-2.173 5.174-6.817 8.082-12.25 8.082-7.757 0-13.635-5.717-13.635-13.207s5.878-13.207 13.635-13.207zm41.884 15.572h-19.66c.889 3.007 3.458 5.125 6.965 5.125 2.767 0 5.088-1.33 6.323-3.548l5.483 2.464c-2.223 3.992-6.47 6.801-12.003 6.801-7.757 0-13.635-5.717-13.635-13.207s5.78-13.207 13.387-13.207c8.546 0 14.523 7.097 13.14 15.572zm-19.562-5.075h12.893c-.889-2.859-3.31-4.781-6.471-4.781-3.013 0-5.483 1.922-6.422 4.781zm44.851 8.87c0 4.336-4.693 7.047-11.016 7.047-4.645 0-9.139-1.528-11.905-4.287l3.655-4.485c2.322 2.217 5.977 3.055 8.25 3.055 2.815 0 4.099-1.084 4.099-2.365 0-1.922-2.074-2.415-5.087-2.415h-3.705v-5.42h3.705c3.013 0 5.087-.493 5.087-2.415 0-1.282-1.284-2.366-4.099-2.366-2.273 0-5.928.838-8.25 3.105l-3.655-4.533c2.766-2.76 7.26-4.288 11.905-4.288 6.323 0 11.016 2.711 11.016 7.097 0 2.808-2.174 5.42-7.163 6.11 4.989.69 7.163 3.302 7.163 6.16m17.635-19.367c7.756 0 13.634 5.716 13.634 13.207s-5.878 13.207-13.634 13.207-13.634-5.717-13.634-13.207 5.878-13.207 13.634-13.207zm0 20.352c3.853 0 6.718-3.055 6.718-7.145 0-4.041-2.865-7.096-6.718-7.096-3.804 0-6.718 3.055-6.718 7.096 0 4.09 2.914 7.145 6.718 7.145m18.221 5.569v-25.428h6.668v9.807h11.56v-9.807h6.669v25.428h-6.669v-9.807h-11.56v9.807h-6.668zm34.282-25.871c2.371 0 4.396 1.971 4.396 4.435 0 2.315-2.025 4.385-4.396 4.385-2.47 0-4.446-2.07-4.446-4.385 0-2.464 1.976-4.435 4.446-4.435h0zm0 17.493c2.371 0 4.396 1.972 4.396 4.436 0 2.315-2.025 4.385-4.396 4.385-2.47 0-4.446-2.07-4.446-4.385 0-2.464 1.976-4.436 4.446-4.436zm37.536-17.05h12.104v25.428h-6.274v-23.949l-6.917 23.949h-12.102v-25.428h6.274v24.146l6.915-24.146zm30.871 0h12.103v25.428h-6.273v-23.949l-6.917 23.949H249.82v-25.428h6.274v24.146l6.915-24.146z"/></g></g><defs><clipPath id="A"><path fill="#fff" d="M0 0h320v184H0z"/></clipPath></defs></svg>